<mxfile host="app.diagrams.net" modified="2023-07-15T07:27:03.051Z" agent="Mozilla/5.0 (Windows NT 10.0; Win64; x64) AppleWebKit/537.36 (KHTML, like Gecko) Chrome/114.0.0.0 Safari/537.36" etag="m9bmZzEEgyr5Rx1Npo3G" version="21.6.2" type="github">
  <diagram name="第 1 页" id="DUvIJ9s0Doq-5VElaujk">
    <mxGraphModel dx="1050" dy="549" grid="1" gridSize="10" guides="1" tooltips="1" connect="1" arrows="1" fold="1" page="1" pageScale="1" pageWidth="827" pageHeight="1169" math="0" shadow="0">
      <root>
        <mxCell id="0" />
        <mxCell id="1" parent="0" />
        <mxCell id="CwcYAfboFCv2EPO12zRP-1" value="取指" style="rounded=0;whiteSpace=wrap;html=1;fillColor=#f5f5f5;fontColor=#333333;strokeColor=#666666;fontSize=14;" vertex="1" parent="1">
          <mxGeometry x="160" y="200" width="80" height="40" as="geometry" />
        </mxCell>
        <mxCell id="CwcYAfboFCv2EPO12zRP-2" value="第1条指令" style="text;html=1;strokeColor=none;fillColor=none;align=center;verticalAlign=middle;whiteSpace=wrap;rounded=0;fontSize=14;" vertex="1" parent="1">
          <mxGeometry x="50" y="207" width="90" height="30" as="geometry" />
        </mxCell>
        <mxCell id="CwcYAfboFCv2EPO12zRP-3" value="第2条指令" style="text;html=1;strokeColor=none;fillColor=none;align=center;verticalAlign=middle;whiteSpace=wrap;rounded=0;fontSize=14;" vertex="1" parent="1">
          <mxGeometry x="48" y="287" width="90" height="30" as="geometry" />
        </mxCell>
        <mxCell id="CwcYAfboFCv2EPO12zRP-4" value="第3条指令" style="text;html=1;strokeColor=none;fillColor=none;align=center;verticalAlign=middle;whiteSpace=wrap;rounded=0;fontSize=14;" vertex="1" parent="1">
          <mxGeometry x="50" y="365" width="90" height="30" as="geometry" />
        </mxCell>
        <mxCell id="CwcYAfboFCv2EPO12zRP-6" value="解码" style="rounded=0;whiteSpace=wrap;html=1;fillColor=#dae8fc;strokeColor=#6c8ebf;fontSize=14;" vertex="1" parent="1">
          <mxGeometry x="240" y="200" width="80" height="40" as="geometry" />
        </mxCell>
        <mxCell id="CwcYAfboFCv2EPO12zRP-7" value="执行" style="rounded=0;whiteSpace=wrap;html=1;fillColor=#d5e8d4;strokeColor=#82b366;fontSize=14;" vertex="1" parent="1">
          <mxGeometry x="320" y="200" width="80" height="40" as="geometry" />
        </mxCell>
        <mxCell id="CwcYAfboFCv2EPO12zRP-8" value="访存" style="rounded=0;whiteSpace=wrap;html=1;fillColor=#ffe6cc;strokeColor=#d79b00;fontSize=14;" vertex="1" parent="1">
          <mxGeometry x="400" y="200" width="80" height="40" as="geometry" />
        </mxCell>
        <mxCell id="CwcYAfboFCv2EPO12zRP-9" value="写回" style="rounded=0;whiteSpace=wrap;html=1;fillColor=#fff2cc;strokeColor=#d6b656;fontSize=14;" vertex="1" parent="1">
          <mxGeometry x="480" y="200" width="80" height="40" as="geometry" />
        </mxCell>
        <mxCell id="CwcYAfboFCv2EPO12zRP-11" value="取指" style="rounded=0;whiteSpace=wrap;html=1;fillColor=#f5f5f5;fontColor=#333333;strokeColor=#666666;fontSize=14;" vertex="1" parent="1">
          <mxGeometry x="240" y="280" width="80" height="40" as="geometry" />
        </mxCell>
        <mxCell id="CwcYAfboFCv2EPO12zRP-12" value="解码" style="rounded=0;whiteSpace=wrap;html=1;fillColor=#dae8fc;strokeColor=#6c8ebf;fontSize=14;" vertex="1" parent="1">
          <mxGeometry x="320" y="280" width="80" height="40" as="geometry" />
        </mxCell>
        <mxCell id="CwcYAfboFCv2EPO12zRP-13" value="执行" style="rounded=0;whiteSpace=wrap;html=1;fillColor=#d5e8d4;strokeColor=#82b366;fontSize=14;" vertex="1" parent="1">
          <mxGeometry x="400" y="280" width="80" height="40" as="geometry" />
        </mxCell>
        <mxCell id="CwcYAfboFCv2EPO12zRP-14" value="访存" style="rounded=0;whiteSpace=wrap;html=1;fillColor=#ffe6cc;strokeColor=#d79b00;fontSize=14;" vertex="1" parent="1">
          <mxGeometry x="480" y="280" width="80" height="40" as="geometry" />
        </mxCell>
        <mxCell id="CwcYAfboFCv2EPO12zRP-15" value="写回" style="rounded=0;whiteSpace=wrap;html=1;fillColor=#fff2cc;strokeColor=#d6b656;fontSize=14;" vertex="1" parent="1">
          <mxGeometry x="560" y="280" width="80" height="40" as="geometry" />
        </mxCell>
        <mxCell id="CwcYAfboFCv2EPO12zRP-16" value="取指" style="rounded=0;whiteSpace=wrap;html=1;fillColor=#f5f5f5;fontColor=#333333;strokeColor=#666666;fontSize=14;" vertex="1" parent="1">
          <mxGeometry x="320" y="360" width="80" height="40" as="geometry" />
        </mxCell>
        <mxCell id="CwcYAfboFCv2EPO12zRP-17" value="解码" style="rounded=0;whiteSpace=wrap;html=1;fillColor=#dae8fc;strokeColor=#6c8ebf;fontSize=14;" vertex="1" parent="1">
          <mxGeometry x="400" y="360" width="80" height="40" as="geometry" />
        </mxCell>
        <mxCell id="CwcYAfboFCv2EPO12zRP-18" value="执行" style="rounded=0;whiteSpace=wrap;html=1;fillColor=#d5e8d4;strokeColor=#82b366;fontSize=14;" vertex="1" parent="1">
          <mxGeometry x="480" y="360" width="80" height="40" as="geometry" />
        </mxCell>
        <mxCell id="CwcYAfboFCv2EPO12zRP-19" value="访存" style="rounded=0;whiteSpace=wrap;html=1;fillColor=#ffe6cc;strokeColor=#d79b00;fontSize=14;" vertex="1" parent="1">
          <mxGeometry x="560" y="360" width="80" height="40" as="geometry" />
        </mxCell>
        <mxCell id="CwcYAfboFCv2EPO12zRP-20" value="写回" style="rounded=0;whiteSpace=wrap;html=1;fillColor=#fff2cc;strokeColor=#d6b656;fontSize=14;" vertex="1" parent="1">
          <mxGeometry x="640" y="360" width="80" height="40" as="geometry" />
        </mxCell>
        <mxCell id="CwcYAfboFCv2EPO12zRP-21" value="第4条指令" style="text;html=1;strokeColor=none;fillColor=none;align=center;verticalAlign=middle;whiteSpace=wrap;rounded=0;fontSize=14;" vertex="1" parent="1">
          <mxGeometry x="50" y="445" width="90" height="30" as="geometry" />
        </mxCell>
        <mxCell id="CwcYAfboFCv2EPO12zRP-22" value="取指" style="rounded=0;whiteSpace=wrap;html=1;fillColor=#f5f5f5;fontColor=#333333;strokeColor=#666666;fontSize=14;" vertex="1" parent="1">
          <mxGeometry x="400" y="440" width="80" height="40" as="geometry" />
        </mxCell>
        <mxCell id="CwcYAfboFCv2EPO12zRP-23" value="解码" style="rounded=0;whiteSpace=wrap;html=1;fillColor=#dae8fc;strokeColor=#6c8ebf;fontSize=14;" vertex="1" parent="1">
          <mxGeometry x="480" y="440" width="80" height="40" as="geometry" />
        </mxCell>
        <mxCell id="CwcYAfboFCv2EPO12zRP-24" value="执行" style="rounded=0;whiteSpace=wrap;html=1;fillColor=#d5e8d4;strokeColor=#82b366;fontSize=14;" vertex="1" parent="1">
          <mxGeometry x="560" y="440" width="80" height="40" as="geometry" />
        </mxCell>
        <mxCell id="CwcYAfboFCv2EPO12zRP-25" value="访存" style="rounded=0;whiteSpace=wrap;html=1;fillColor=#ffe6cc;strokeColor=#d79b00;fontSize=14;" vertex="1" parent="1">
          <mxGeometry x="640" y="440" width="80" height="40" as="geometry" />
        </mxCell>
        <mxCell id="CwcYAfboFCv2EPO12zRP-26" value="写回" style="rounded=0;whiteSpace=wrap;html=1;fillColor=#fff2cc;strokeColor=#d6b656;fontSize=14;" vertex="1" parent="1">
          <mxGeometry x="720" y="440" width="80" height="40" as="geometry" />
        </mxCell>
      </root>
    </mxGraphModel>
  </diagram>
</mxfile>
